<svg width="400" height="400" viewBox="0 0 400 400" fill="none" xmlns="http://www.w3.org/2000/svg">
      <path
        d="M400 200C400 310.457 310.457 400 200 400C194.274 400 188.604 399.759 183 399.288C183.037 397.434 183.068 395.393 183.095 393.122L183.253 380.134L187.667 379.98C192.719 379.804 193.364 379.708 200.908 378.015C206.806 376.691 210.912 375.915 214.401 375.464C221.089 374.598 227.789 372.039 235.766 367.303C240.328 364.595 243.62 363.484 249.281 362.743C253.129 362.239 253.661 362.251 254.432 362.858C254.785 363.135 255.399 363.362 255.796 363.362C256.263 363.362 258.502 362.215 262.13 360.116C274.646 352.878 276.509 352.136 278.541 353.583C279.913 354.56 280.766 354.349 284.009 352.229C285.604 351.186 288.271 349.612 289.936 348.732C297.719 344.618 304.337 339.811 308.02 335.596C309.781 333.582 312.362 331.386 315.156 329.526C317.508 327.96 326.013 323.568 326.245 323.799C326.397 323.952 322.662 328.205 320.329 330.535C319.448 331.414 316.959 333.755 314.798 335.736C309.533 340.562 305.71 344.548 303.425 347.594C302.387 348.979 299.701 352.291 297.457 354.955C292.526 360.808 291.154 362.618 288.794 366.376C283.494 374.818 278.693 379.298 271.33 382.672C269.835 383.356 267.87 384.46 266.963 385.125C265.55 386.16 265.326 386.431 265.393 387.016C265.468 387.668 265.536 387.7 266.859 387.691C268.782 387.678 270.813 386.699 272.33 385.052C273.326 383.97 274.178 383.439 277.566 381.788C283.375 378.957 283.926 378.49 288.153 372.82C294.942 363.711 298.976 357.727 298.768 357.073C298.695 356.842 298.803 356.431 299.009 356.161C299.326 355.745 299.421 355.726 299.625 356.036C299.835 356.357 299.951 356.357 300.553 356.036C301.435 355.566 313.012 341.726 313.012 341.141C313.012 340.899 312.836 340.664 312.62 340.619C312.39 340.571 313.774 339.389 315.961 337.765C319.797 334.917 320.922 333.85 323.546 330.575C324.379 329.535 326.756 327.028 328.828 325.003L332.595 321.323L337.501 312.187C338.268 310.759 338.814 309.743 338.91 309.565C339.074 309.261 339.39 307.618 339.613 305.915C340.154 301.767 340.641 300.337 342.656 296.978C344.137 294.508 347.485 289.466 347.644 289.466C347.674 289.466 346.902 291.083 345.928 293.06C343.874 297.226 342.604 300.748 343.009 301.153C343.358 301.502 343.584 301.181 345.826 297.158C348.005 293.247 350.899 288.117 351.001 287.984C351.042 287.932 351.538 288.076 352.105 288.302C353.41 288.824 353.714 288.665 355.132 286.718C355.742 285.881 356.273 285.229 356.314 285.269C356.354 285.31 355.082 288.674 353.486 292.746C351.891 296.818 350.647 300.344 350.723 300.581C350.867 301.035 351.692 301.365 352.198 301.171C352.499 301.056 355.087 295.178 356.797 290.727C357.651 288.507 358.267 287.383 359.678 285.474C360.342 284.576 360.926 282.236 360.916 280.513C360.911 279.819 360.698 277.838 360.44 276.109C360.061 273.564 360.033 272.917 360.295 272.704C360.488 272.548 360.682 271.555 360.776 270.247C361.069 266.14 362.277 263.222 366.868 255.526C371.555 247.671 373.951 242.688 375.166 238.269C375.713 236.28 376.468 234.735 376.888 234.746C377.059 234.75 377.652 235.033 378.207 235.375C379.321 236.061 380.049 236.169 380.238 235.676C380.458 235.103 379.397 232.506 378.338 231.028C377.15 229.368 376.737 228.083 376.209 224.398C375.415 218.855 375.419 218.688 376.418 216.636C377.208 215.013 377.412 214.141 378.192 209.07C379.778 198.751 380.076 194.759 380.164 182.61L380.174 181.231V181.22C380.204 176.762 380.216 175.002 380.49 174.961C380.668 174.933 380.958 175.637 381.437 176.8L381.666 177.354C382.07 178.329 382.736 180.417 383.145 181.993C383.97 185.178 384.023 185.306 384.498 185.306C385.027 185.306 385.113 184.477 384.872 181.693C384.459 176.946 383.317 173.34 380.343 167.399C378.752 164.222 378.603 163.776 378.099 160.716C376.537 151.218 373.032 140.637 367.223 127.886C363.752 120.269 362.795 118.847 354.857 109.519C352.025 106.19 348.749 102.282 347.577 100.835C341.087 92.8162 334.664 87.3292 327.619 83.784C323.603 81.7627 320.537 79.1626 317.067 74.8349C314.312 71.398 313.933 70.7256 314.136 69.6403C314.251 69.027 314.184 68.563 313.923 68.1637C313.713 67.8435 311.237 66.2505 308.422 64.6238C300.903 60.2797 297.121 57.939 296.034 56.9572C294.873 55.9086 294.217 54.6725 294.025 53.1729C293.811 51.5085 293.185 50.8917 290.162 49.368C288.648 48.6051 286.206 47.2205 284.734 46.291C276.76 41.255 269.661 38.0905 262.245 36.2661C255.951 34.7177 253.51 33.5331 247 28.8657C245.441 27.7478 244.208 26.7908 244.259 26.7392C244.4 26.5985 252.997 28.5781 255.888 29.4168C257.275 29.8193 260.34 30.7358 262.698 31.4536C268.422 33.1963 271.448 33.8925 276.569 34.6461C278.927 34.993 283.183 35.725 286.027 36.2727C291.97 37.4174 295.697 37.8843 301.916 38.2639C308.762 38.6817 314.202 39.9917 318.902 42.3545C320.65 43.2329 321.083 43.1507 321.083 41.9404C321.083 41.1384 320.921 40.9353 319.381 39.8007C315.794 37.1592 314.389 36.7502 304.587 35.4917C301.384 35.0804 298.195 34.6355 297.502 34.5029C296.808 34.3703 293.971 34.0264 291.197 33.7388C290.683 33.6855 290.219 33.6379 289.795 33.5945C287.938 33.4041 286.852 33.2928 285.774 33.132C284.257 32.9058 282.754 32.5817 279.136 31.8012L277.199 31.3839C272.969 30.4738 268.259 29.4879 266.733 29.193C265.048 28.8671 262.772 28.1798 260.933 27.4407C250.818 23.3768 240.771 21.3645 230.668 21.3787C227.142 21.3837 222.289 21.7808 217.049 22.4929C215.523 22.7003 211.338 23.0095 207.75 23.1801C201.453 23.4793 201.214 23.4735 200.877 23.014C200.686 22.7522 200.529 22.2331 200.529 21.8605C200.529 20.7582 199.985 20.538 196.919 20.4004C195.664 20.3441 194.847 20.3155 194.841 20.2261C194.83 20.0821 196.921 19.7802 202.672 18.9498L203.552 18.8229C207.502 18.2522 210.992 17.6875 211.307 17.5679C211.981 17.3117 212.122 15.9722 211.5 15.7336C210.883 15.4969 203.62 16.2545 201.091 16.8194C199.354 17.2074 197.959 17.3338 195.669 17.3108C194.283 17.2969 193.437 17.3131 192.78 17.3992L192.577 17.3957L192.451 17.4509C192.033 17.5285 191.677 17.643 191.266 17.8078C188.951 18.7343 186.373 20.1242 184.381 21.5197C181.964 23.2136 179.309 24.4824 176.696 25.192C174.823 25.7009 173.858 25.7536 163.203 25.9285C151.187 26.1257 150.837 26.1558 144.666 27.5291L144.421 27.5837C143.108 27.8769 142.535 28.0048 142.256 27.7755C142.039 27.598 141.998 27.2069 141.925 26.5132L141.907 26.3463C141.678 24.2087 141.496 23.9376 140.605 24.4114C139.725 24.8792 138.821 26.1317 137.224 29.0934C136.277 30.8506 135.742 31.5632 135.138 31.8735C134.691 32.1031 133.197 33.1978 131.816 34.3063C128.853 36.6859 128.168 37.01 126.104 37.01C124.702 37.01 123.8 37.3113 116.953 40.0657C109.358 43.1213 103.75 45.7441 99.707 48.1321C97.9021 49.1982 95.2295 50.862 87.7312 55.5878C87.2109 55.9156 86.7854 56.1376 86.7854 56.0811C86.7854 56.0246 88.7148 53.7314 91.0728 50.9852C93.4309 48.2389 95.3604 45.8437 95.3604 45.6624C95.3604 44.5212 92.011 46.7255 88.22 50.3614C85.3416 53.1222 83.437 55.5293 81.4226 58.9518C80.1785 61.0658 79.7097 61.5977 77.4382 63.473C70.22 69.4321 62.8755 77.5256 55.2217 87.9552C49.4021 95.8854 47.2798 100.28 42.1711 114.981C36.7734 130.513 35.3203 137.632 35.7183 146.592C35.8257 149.013 35.7839 150.997 35.6023 152.102C35.1846 154.643 33.9475 158.321 32.439 161.509C31.2515 164.018 31.0261 164.338 30.3394 164.489L30.2483 164.508C30.0027 164.561 29.802 164.605 29.6375 164.706C28.9075 165.158 28.8884 166.759 28.7852 175.47L28.7742 176.376C28.6616 185.84 28.6404 187.628 27.7571 188.716C27.5515 188.969 27.2991 189.185 26.9875 189.451L26.9634 189.471C26.4788 189.885 25.8896 190.337 25.6543 190.476C24.6189 191.087 24.532 192.225 24.76 202.204C25.0388 214.41 25.5615 218.901 27.7837 228.181C29.2295 234.217 29.4795 237.186 28.9458 241.979C28.7109 244.086 28.4297 246.052 28.3208 246.347C28.1687 246.758 27.7876 245.835 26.6851 242.386C25.325 238.132 24.8945 236.426 22.9736 227.676C21.792 222.293 20.6177 218.419 18.9602 214.437C18.1492 212.489 16.5527 208.286 15.4124 205.099C13.5945 200.016 11.4395 194.765 10.8606 194.007C10.1807 193.117 7.24341 186.743 6.47363 184.488C4.68799 179.256 4.33643 176.119 4.67163 168.408C4.771 166.12 4.75732 163.736 4.64087 163.112C4.46143 162.149 4.33154 161.966 3.78296 161.901C3.75879 161.898 3.73438 161.896 3.70972 161.895C3.68823 161.894 3.66675 161.893 3.64502 161.893H3.62598C21.4185 69.6619 102.574 0 200 0C310.457 0 400 89.5431 400 200Z"
        fill="#284B63"
      />
      <path
        d="M0 200C0 303.027 77.9011 387.858 178.014 398.805C178.059 396.331 178.08 393.641 178.081 390.703L178.083 379.834L175.119 379.526C164.808 378.454 154.908 376.328 144.428 372.935L144.04 372.809C143.125 372.512 142.445 372.291 141.755 372.106C139.756 371.57 137.678 371.334 129.58 370.414L128.399 370.279C124.398 369.824 123.859 369.651 123.859 368.821C123.859 367.703 124.346 367.569 127.707 367.765C129.618 367.876 130.698 367.855 130.542 367.71C130.404 367.58 127.169 365.688 123.355 363.503C119.541 361.319 116.337 359.401 116.235 359.24C115.937 358.77 116.84 358.269 117.733 358.409C118.193 358.481 119.392 359.184 120.508 360.037C122.605 361.639 125.01 362.689 133.008 365.489C140.587 368.143 142.708 368.526 147.566 368.121C149.686 367.944 150.855 367.736 151.136 367.484C151.747 366.937 154.596 366.526 165.725 365.382C171.204 364.818 176.226 364.235 176.885 364.086L178.064 363.82L178.083 363.806V362.706C178.083 361.646 178.05 361.597 177.341 361.597C176.932 361.597 173.499 362.21 169.711 362.96C159.94 364.894 158.028 365.206 157.067 365.026C156.054 364.836 155.55 363.952 155.774 362.758L155.926 361.955L150.927 359.714C148.177 358.482 142.775 355.958 138.923 354.105C125.896 347.841 120.535 346.067 111.734 345.107C108.519 344.756 106.043 344.141 104.373 343.277C103.275 342.71 103.651 342.297 105.223 342.342C106.563 342.38 106.554 342.375 104.615 341.981C102.789 341.609 102.594 341.611 101.928 342.004C101.529 342.24 100.682 342.429 100.024 342.429H98.8394L100.375 344.162C103.014 347.138 103.83 347.846 107.847 350.648C111.292 353.05 111.754 353.455 111.754 354.071C111.754 354.928 111.075 355.368 110.36 354.974C109.784 354.656 100.067 347.28 97.6152 345.3C96.4487 344.358 95.7871 343.592 95.3711 342.704L94.781 341.444L91.729 340.196C86.2544 337.957 84.9604 337.641 81.9575 337.808C79.031 337.971 77.4539 337.579 77.4539 336.689C77.4539 336.187 78.4858 335.302 79.4133 335.007C79.7227 334.909 79.9758 334.637 79.9758 334.402C79.9758 334.168 78.1284 331.421 75.8701 328.298C68.2808 317.803 67.0034 315.852 64.0488 310.235C62.4248 307.148 61.9768 306.521 59.9409 304.483C57.0886 301.627 52.9736 299.022 50.3071 298.385C49.3552 298.157 48.1621 297.804 47.6553 297.6C46.3154 297.062 45.0105 295.595 44.3328 293.865C44.0066 293.033 43.2305 291.66 42.6079 290.815C41.9854 289.969 41.3301 288.924 41.1514 288.493C40.7754 287.586 40.9473 286.887 41.4949 287.098C41.7026 287.177 43.302 288.817 45.0493 290.741C47.9575 293.944 51.8657 297.484 52.1641 297.186C52.2314 297.118 51.9231 296.556 51.4785 295.937C50.9324 295.177 50.3242 294.68 49.6038 294.405C48.3606 293.93 47.1516 292.826 46.6074 291.67C45.5305 289.381 44.9194 287.843 44.9194 287.422C44.9194 287.13 45.2993 286.761 45.9314 286.438L46.9431 285.922L46.5229 285.109C45.0652 282.289 41.3008 276.48 37.2947 270.87C34.7432 267.296 32.1565 263.634 31.5466 262.733C30.209 260.755 28.7856 257.586 28.7815 256.576C28.7795 256.172 28.5015 255.369 28.1628 254.791C27.8142 254.196 26.5623 250.186 25.2766 245.547C24.0276 241.041 22.7788 236.737 22.5015 235.983C22.2241 235.229 21.7688 233.094 21.4897 231.239C21.2107 229.384 20.949 227.852 20.9082 227.835C20.0591 227.466 19.7366 226.861 18.4001 223.129C15.3843 214.707 13.2056 209.11 8.29102 197.16C5.52417 190.432 2.96997 184.076 2.61475 183.036C1.97217 181.154 1.96924 181.107 2.0188 173.452C2.02075 173.164 2.02271 172.882 2.02515 172.607L2.03149 171.948L2.03882 171.335C0.695312 180.696 0 190.267 0 200Z"
        fill="#284B63"
      />
      <path
        d="M192.963 377.233C198.472 376.429 202.159 375.791 201.538 375.749C201.33 375.735 198.436 376.119 195.107 376.601C191.778 377.084 188.657 377.488 188.171 377.5C187.686 377.512 187.062 377.618 186.784 377.738C185.805 378.158 187.672 378.006 192.963 377.233Z"
        fill="#284B63"
      />
<svg xmlns="http://www.w3.org/2000/svg" viewBox="0 0 841.9 595.3">
    <g fill="#61DAFB">
        <path d="M666.3 296.5c0-32.5-40.7-63.3-103.1-82.4 14.4-63.6 8-114.2-20.2-130.4-6.5-3.8-14.1-5.6-22.4-5.6v22.3c4.6 0 8.3.9 11.4 2.6 13.6 7.8 19.5 37.5 14.9 75.7-1.1 9.4-2.9 19.3-5.1 29.4-19.6-4.8-41-8.5-63.5-10.9-13.5-18.5-27.5-35.3-41.6-50 32.6-30.3 63.2-46.9 84-46.9V78c-27.5 0-63.5 19.6-99.9 53.6-36.4-33.8-72.4-53.2-99.9-53.2v22.3c20.7 0 51.4 16.5 84 46.6-14 14.7-28 31.4-41.3 49.9-22.6 2.4-44 6.1-63.6 11-2.3-10-4-19.7-5.2-29-4.7-38.2 1.1-67.9 14.6-75.8 3-1.8 6.9-2.6 11.5-2.6V78.5c-8.4 0-16 1.8-22.6 5.6-28.1 16.2-34.4 66.7-19.9 130.1-62.2 19.2-102.7 49.9-102.7 82.3 0 32.5 40.7 63.3 103.1 82.4-14.4 63.6-8 114.2 20.2 130.4 6.5 3.8 14.1 5.6 22.5 5.6 27.5 0 63.5-19.6 99.9-53.6 36.4 33.8 72.4 53.2 99.9 53.2 8.4 0 16-1.8 22.6-5.6 28.1-16.2 34.4-66.7 19.9-130.1 62-19.1 102.5-49.9 102.5-82.3zm-130.2-66.7c-3.7 12.9-8.3 26.2-13.5 39.5-4.1-8-8.4-16-13.1-24-4.6-8-9.5-15.8-14.4-23.4 14.2 2.1 27.9 4.7 41 7.9zm-45.8 106.5c-7.8 13.5-15.8 26.3-24.1 38.2-14.9 1.3-30 2-45.2 2-15.1 0-30.2-.7-45-1.9-8.3-11.9-16.4-24.6-24.2-38-7.6-13.1-14.5-26.4-20.8-39.8 6.2-13.4 13.2-26.8 20.7-39.9 7.8-13.5 15.8-26.3 24.1-38.2 14.9-1.3 30-2 45.2-2 15.1 0 30.2.7 45 1.9 8.3 11.9 16.4 24.6 24.2 38 7.6 13.1 14.5 26.4 20.8 39.8-6.3 13.4-13.2 26.8-20.7 39.9zm32.3-13c5.4 13.4 10 26.8 13.8 39.8-13.1 3.2-26.9 5.9-41.2 8 4.9-7.7 9.8-15.6 14.4-23.7 4.6-8 8.9-16.1 13-24.1zM421.2 430c-9.3-9.6-18.6-20.3-27.8-32 9 .4 18.2.7 27.5.7 9.4 0 18.7-.2 27.8-.7-9 11.7-18.3 22.4-27.5 32zm-74.4-58.9c-14.2-2.1-27.9-4.7-41-7.9 3.7-12.9 8.3-26.2 13.5-39.5 4.1 8 8.4 16 13.1 24 4.7 8 9.5 15.8 14.4 23.4zM420.7 163c9.3 9.6 18.6 20.3 27.8 32-9-.4-18.2-.7-27.5-.7-9.4 0-18.7.2-27.8.7 9-11.7 18.3-22.4 27.5-32zm-74 58.9c-4.9 7.7-9.8 15.6-14.4 23.7-4.6 8-8.9 16-13 24-5.4-13.4-10-26.8-13.8-39.8 13.1-3.1 26.9-5.8 41.2-7.9zm-90.5 125.2c-35.4-15.1-58.3-34.9-58.3-50.6 0-15.7 22.9-35.6 58.3-50.6 8.6-3.7 18-7 27.7-10.1 5.7 19.6 13.2 40 22.5 60.9-9.2 20.8-16.6 41.1-22.2 60.6-9.9-3.1-19.3-6.5-28-10.2zM310 490c-13.6-7.8-19.5-37.5-14.9-75.7 1.1-9.4 2.9-19.3 5.1-29.4 19.6 4.8 41 8.5 63.5 10.9 13.5 18.5 27.5 35.3 41.6 50-32.6 30.3-63.2 46.9-84 46.9-4.5-.1-8.3-1-11.3-2.7zm237.2-76.2c4.7 38.2-1.1 67.9-14.6 75.8-3 1.8-6.9 2.6-11.5 2.6-20.7 0-51.4-16.5-84-46.6 14-14.7 28-31.4 41.3-49.9 22.6-2.4 44-6.1 63.6-11 2.3 10.1 4.1 19.8 5.2 29.1zm38.5-66.7c-8.6 3.7-18 7-27.7 10.1-5.7-19.6-13.2-40-22.5-60.9 9.2-20.8 16.6-41.1 22.2-60.6 9.9 3.1 19.3 6.5 28.1 10.2 35.4 15.1 58.3 34.9 58.3 50.6-.1 15.7-23 35.6-58.4 50.6zM320.8 78.4z"/>
        <circle cx="420.9" cy="296.5" r="45.7"/>
        <path d="M520.5 78.1z"/>
    </g>
</svg>

      <path
        d="M195.99 374.994C208.031 372.464 212.825 371.497 216.059 370.946C217.734 370.66 219.744 370.207 220.526 369.938C222.095 369.398 226.589 367.143 226.424 366.979C226.367 366.921 225.312 366.99 224.08 367.131C216.838 367.958 198.94 368.167 190.567 367.522C187.932 367.319 185.177 367.151 184.446 367.149L183.116 367.145L183.253 376.35L184.767 376.507C187.23 376.762 188.194 376.632 195.99 374.994Z"
        fill="#284B63"
      />
      <path
        d="M178.083 371.811C178.083 367.654 178.056 367.397 177.607 367.397C176.703 367.397 164.813 368.686 156.558 369.679C152.002 370.227 148.089 370.676 147.864 370.676C147.534 370.676 147.555 370.746 147.968 371.036C149.01 371.766 151.593 372.406 156.142 373.062C164.188 374.221 175.404 375.983 175.527 376.106C175.592 376.171 176.194 376.224 176.864 376.224H178.083V371.811Z"
        fill="#284B63"
      />
      <path
        d="M202.862 375.553C202.689 375.483 202.405 375.483 202.232 375.553C202.058 375.623 202.2 375.68 202.547 375.68C202.894 375.68 203.036 375.623 202.862 375.553Z"
        fill="#284B63"
      />
      <path
        d="M216.67 372.83C217.658 372.584 217.84 372.484 217.301 372.482C216.525 372.479 214.222 373.132 214.905 373.161C215.113 373.17 215.907 373.021 216.67 372.83Z"
        fill="#284B63"
      />
      <path
        d="M216.297 365.25C217.826 365.037 220.72 364.763 222.729 364.641C225.563 364.47 227.182 364.217 229.961 363.513C231.931 363.014 234.065 362.605 234.704 362.605C236.67 362.605 243.136 361.381 245.926 360.48C248.185 359.75 249.048 359.605 251.794 359.491C254.898 359.362 255.037 359.378 255.697 359.946L256.381 360.534L257.709 359.32C258.498 358.599 260.344 357.428 262.255 356.437C264.024 355.519 265.245 354.825 264.968 354.894C264.69 354.963 262.544 355.596 260.198 356.3C257.233 357.19 255.852 357.5 255.669 357.317C255.486 357.134 255.52 356.938 255.782 356.677C256.155 356.304 263.295 353.526 263.881 353.526C263.896 353.526 263.911 353.526 263.924 353.524L264.037 353.475C264.058 353.435 264.028 353.373 263.946 353.293C263.647 353.003 248.011 352.411 244.993 352.576C242.579 352.708 237.813 353.933 229.785 356.487C219.534 359.748 217.491 360.163 211.626 360.173C205.539 360.183 200.275 359.074 194.26 356.514C191.266 355.24 191.026 355.087 190.666 354.215C190.31 353.356 190.698 352.265 191.361 352.265C191.595 352.265 191.734 352.213 191.671 352.15C191.412 351.891 183.537 349.519 183.34 349.641C183.223 349.713 183.127 352.51 183.127 355.856V361.94L184.276 363.009C185.638 364.278 185.744 364.299 191.702 364.496C192.557 364.524 193.379 364.552 194.169 364.579C194.991 364.608 195.779 364.636 196.532 364.663L196.724 364.658C200.201 364.566 203.655 364.475 208.239 365.241C209.291 365.329 209.955 365.417 210.274 365.505C211.583 365.867 211.987 365.85 216.297 365.25Z"
        fill="#284B63"
      />
      <path
        d="M123.469 341.579C123.1 341.553 122.816 341.689 122.427 341.919C121.338 342.561 120.375 342.561 115.79 341.922L115.156 341.834C111.895 341.381 110.122 341.135 108.524 340.468C106.621 339.675 104.966 338.286 101.341 335.242L100.751 334.747C97.0381 331.632 91.8284 326.45 90.2178 324.27C88.8708 322.448 88.4348 322.143 86.7861 321.874C84.6011 321.517 81.2246 319.275 78.0852 316.095C75.4602 313.436 74.2639 311.527 72.542 307.247C71.8721 305.582 70.0234 301.383 68.4336 297.915C62.2473 284.422 58.4736 274.202 52.2561 254.105C49.5457 245.344 45.5981 230.27 45.0378 226.541C44.9424 225.907 45.1223 224.317 45.5232 222.254C46.5027 217.213 46.7427 214.845 46.6472 211.159C46.5781 208.485 46.4751 207.685 46.1597 207.37C45.8364 207.047 45.7114 207.033 45.5081 207.298C45.3699 207.478 44.875 210.034 44.4087 212.978C43.9424 215.922 43.5227 218.292 43.4761 218.245C43.3706 218.14 41.842 208.608 41.1665 203.843C40.4497 198.788 39.9553 193.567 39.3792 184.973C39.1018 180.836 38.8098 177.346 38.7302 177.218C38.6506 177.089 38.2964 176.983 37.9429 176.983C37.1443 176.983 37.1702 176.913 39.0085 174.093C40.2922 172.124 40.4895 171.923 40.6672 172.403C40.7781 172.703 40.9851 172.948 41.1274 172.948C41.45 172.948 43.6938 169.929 45.6682 166.839C48.6445 162.181 49.4216 161.413 51.885 160.697C53.439 160.245 54.5042 159.482 54.5042 158.821C54.5042 158.206 54.3765 158.142 52.4324 157.773L50.7896 157.461L51.1152 156.062C51.2942 155.293 52.0754 151.226 52.8513 147.026C54.2603 139.396 55.4004 134.477 56.6252 130.74C57.5542 127.906 56.981 127.521 55.6089 130.057C55.0886 131.018 55.0117 131.084 55.1428 130.452C55.4485 128.979 58.1091 124.515 58.4678 124.874C58.5339 124.94 58.2668 125.566 57.8743 126.264C57.3193 127.251 57.2275 127.601 57.4629 127.837C57.5186 127.892 57.54 127.956 57.584 127.991C57.8044 128.169 58.5918 127.643 67.1443 121.934L69.875 120.111C71.3459 119.13 72.0266 118.459 72.9458 117.085C73.8257 115.769 74.6477 114.94 76.1721 113.83C79.3809 111.495 82.8699 106.871 81.4236 106.871C80.8059 106.871 78.5503 108.626 74.9409 111.917C71.3623 115.179 71.2881 115.231 71.0737 114.588C70.8877 114.029 70.7075 113.932 69.8594 113.932C68.3682 113.932 67.271 114.501 64.6135 116.65C57.9028 122.077 53.3611 127.992 51.3047 133.982C50.9714 134.953 49.9124 139.266 48.9509 143.566C46.0967 156.333 45.1147 159.367 42.2476 164.28C40.2109 167.77 34.0085 177.505 33.8943 177.391C33.856 177.352 33.9944 176.032 34.2021 174.457C34.6958 170.714 34.6895 169.765 34.1694 169.566C33.9438 169.479 33.6221 169.522 33.4541 169.662C33.2864 169.801 32.8184 172.101 32.4143 174.773C31.6802 179.627 31.2622 180.49 31.7825 176.079C32.1604 172.874 32.1274 170.547 31.6794 168.827C31.2307 167.105 31.2124 166.811 31.5676 167.03C31.7144 167.121 32.0938 167.13 32.4109 167.05C32.8567 166.938 33.2793 166.259 34.2703 164.063C36.2722 159.627 36.9949 157.638 37.593 154.915C38.3623 151.415 38.7703 150.208 40.05 147.645C40.6982 146.347 41.384 144.454 41.6946 143.105C42.0779 141.44 42.425 140.563 42.9326 139.976C43.3206 139.527 43.7627 138.675 43.915 138.084C44.4851 135.871 44.7239 135.362 45.4653 134.782C46.0798 134.301 46.2966 133.852 46.5906 132.449C47.1194 129.927 47.7568 128.708 51.2651 123.514C52.9978 120.949 55.5857 116.864 57.0161 114.437C58.0288 112.718 59.2234 110.692 60.1047 109.198L61.0007 107.679C61.7617 106.39 62.739 105.069 63.1729 104.742C64.1292 104.022 73.1404 98.8245 75.4631 97.6531C76.8164 96.9706 77.6909 96.2132 80.1289 93.6123C82.949 90.6036 86.2754 87.5957 92.6626 82.2785C94.7305 80.5569 96.1882 79.6027 98.7153 78.3162C106.448 74.3798 113.43 72.0514 120.446 71.0694C122.243 70.8177 123.757 70.4851 123.808 70.3303C123.965 69.8595 124.648 70.0127 125.588 70.7296C126.367 71.3242 126.801 71.4329 129.016 71.5885C130.411 71.6865 132.66 71.914 134.014 72.094C136.971 72.4872 138.468 72.25 141.136 70.9657C142.577 70.2723 143.319 70.0859 145.171 69.9527C149.231 69.6609 151.648 68.4727 150.505 67.3303C149.848 66.6729 147.729 66.8323 144.415 67.7885L141.388 68.6616L135.335 68.6611C131.217 68.6608 128.839 68.555 127.895 68.3299C123.739 67.339 116.998 67.8255 111.242 69.5316C107.015 70.7847 101.045 73.0661 99.0281 74.199C96.7322 75.4888 88.7908 82.1482 80.8594 89.4347C79.1948 90.9638 77.7952 92.1082 77.749 91.9778C77.5886 91.5231 78.5232 89.0785 79.4797 87.4508C81.1997 84.524 81.3123 84.4335 100.027 70.9343C106.72 66.106 108.906 64.6681 111.19 63.5887C114.215 62.1592 114.721 61.6282 114.434 60.1864C114.289 59.4567 114.541 59.019 116.303 56.9341C116.949 56.1712 117.908 54.8235 118.436 53.9393C120.241 50.9143 123.285 48.4999 127.412 46.8203C130.061 45.7424 133.756 44.7155 141.388 42.936L148.198 41.3484L149.585 39.8171C150.748 38.5336 151.4 38.083 153.62 37.0322C157.387 35.2487 159.437 34.7199 163.205 34.5596C165.607 34.4575 167.289 34.5516 170.267 34.955C172.416 35.2463 177.409 35.7737 181.363 36.1271C191.121 36.9996 195.578 37.6733 207.97 40.149C225.603 43.6719 234.878 45.831 245.927 48.9847C251.767 50.6517 253.358 51.3533 255.589 53.2463C261.414 58.1872 267.305 61.9782 269.16 61.9782C270.209 61.9782 269.444 61.1212 265.331 57.6929C262.965 55.7201 261.072 54.0627 261.125 54.0098C261.178 53.9569 262.473 54.4669 264.002 55.1431C268.28 57.0341 275.146 59.3407 275.486 59.0009C275.691 58.7957 275.678 58.6147 275.436 58.3232C275.255 58.1044 270.839 55.7935 265.624 53.1877C260.408 50.5819 255.63 48.1265 255.006 47.7312C254.382 47.3359 252.452 45.6415 250.717 43.9659C247.007 40.3831 244.363 38.2226 240.354 35.497C236.687 33.0033 230.87 29.7428 229.127 29.2035C227.707 28.7643 223.733 26.6729 223.733 26.3651C223.733 25.8724 226.749 25.2846 229.281 25.2836C231.864 25.2825 231.976 25.3067 233.809 26.257C238.62 28.7518 243.561 32.3331 248.527 36.9236C252.325 40.4348 253.119 41.0453 253.886 41.0453C254.401 41.0453 255.172 40.3353 255.889 39.2007C256.111 38.8499 256.766 39.0095 261.311 40.5222C266.919 42.3882 269.601 43.4859 276.569 46.7666C284.071 50.2986 286.653 52.0776 290.531 56.386C292.311 58.3645 293.341 58.9691 293.341 58.0358C293.341 57.8094 293.104 57.2136 292.815 56.7117L292.29 55.7992L292.93 56.5457C293.657 57.3927 295.656 61.0475 298.521 66.7701C301.901 73.519 305.98 81.2014 307.159 83.0373C307.782 84.0082 308.939 85.5971 309.729 86.5681C310.519 87.5391 312.216 89.6955 313.499 91.36C315.609 94.0967 316.017 94.4906 317.755 95.4746C322.533 98.1785 326.287 101.55 327.859 104.551C328.611 105.986 329.31 106.876 330.536 107.965C331.448 108.774 332.763 110.278 333.457 111.306C335.645 114.549 336.252 113.291 334.337 109.481C332.422 105.669 330.547 103.613 318.978 92.6397C312.571 86.5632 310.412 83.8737 307 77.7199C305.26 74.583 301.853 67.3299 301.968 67.0083C302.009 66.8932 303.217 67.7572 304.652 68.9283C306.087 70.0994 307.407 71.0576 307.584 71.0576C308.09 71.0576 308.54 70.374 308.304 69.9648C308.189 69.7654 306.903 68.6138 305.447 67.4057C302.48 64.9446 301.945 64.4383 303.051 65.1393C306.107 67.0756 307.975 68.075 309.433 68.5537C310.362 68.8588 311.153 69.134 311.192 69.1653C311.203 69.1747 311.204 69.2114 311.195 69.2682C311.174 69.3997 311.103 69.6395 311.004 69.8997C310.684 70.743 311.132 71.915 312.123 72.823C312.501 73.1698 313.098 74.0187 313.45 74.7096C313.873 75.5399 315.649 77.549 318.689 80.6364C323.505 85.5259 328.902 91.9393 328.902 92.7725C328.902 93.0406 329.394 93.7404 329.996 94.3276C330.611 94.9282 331.425 96.1237 331.856 97.0603C332.368 98.1703 333.3 99.462 334.652 100.935C335.768 102.151 336.91 103.615 337.19 104.188C337.383 104.584 337.905 105.676 338.507 106.943C338.777 107.513 339.064 108.117 339.345 108.71C340.909 112.017 340.955 112.163 340.256 111.666C338.858 110.671 337.788 109.16 337.426 107.671C337.15 106.537 336.966 106.224 336.538 106.162C335.513 106.013 335.469 106.736 336.233 111.266C336.629 113.614 337.01 115.685 337.081 115.868C337.265 116.348 338.101 116.28 339.254 115.692L340.254 115.182L341.407 116.964C344.49 121.729 345.471 125.072 347.441 137.513C348.717 145.571 349.774 150.547 352.289 160.338L354.458 168.787L354.473 172.191C354.485 175.111 354.373 176.117 353.688 179.253C353.248 181.264 352.427 185.106 351.863 187.79C350.417 194.665 349.9 195.746 344.917 202.319L344.358 203.055C342.161 205.949 341.117 207.325 340.388 208.851C339.727 210.236 339.326 211.744 338.562 214.621L336.668 221.727L337.226 222.18C337.534 222.429 337.885 222.632 338.007 222.632C338.474 222.632 340.016 220.174 340.379 218.849L341.278 215.57C342.419 211.403 345.336 206.33 349.782 200.782C351.872 198.175 352.119 197.74 353.229 194.729C354.905 190.184 356.496 184.496 357.171 180.64C357.618 178.087 357.742 176.441 357.733 173.2C357.72 168.78 357.662 168.387 355.781 160.086C354.303 153.561 352.921 146.718 353.085 146.731C353.362 146.754 355.203 149.141 356.143 150.695C357.934 153.657 358.065 154.387 359.707 170.552C361.127 184.53 361.208 185.679 361.05 189.499L360.881 193.567L361.568 194.039C361.945 194.299 362.505 194.742 362.811 195.024C363.531 195.688 367.538 205.746 367.681 207.248C367.792 208.423 366.615 215.666 365.098 223.137C364.418 226.485 363.978 227.939 362.847 230.577C362.073 232.38 361.438 234.065 361.438 234.322C361.437 234.578 361.791 235.119 362.225 235.525L363.014 236.261L362.883 239.724C362.733 243.685 362.18 246.168 360.795 249.091C359.665 251.475 358.311 253.368 354.37 258.067C350.489 262.694 349.433 264.117 348.192 266.39C345.204 271.864 341.802 276.087 331.65 286.922C329.624 289.084 325.586 293.577 322.676 296.906C317.687 302.614 303.918 316.544 300.848 318.99C299.991 319.673 298.922 320.167 297.065 320.739C293.417 321.863 290.104 323.311 287.102 325.092C283.777 327.066 282.766 327.9 283.184 328.329C283.43 328.582 284.589 328.231 288.959 326.58C291.966 325.445 294.469 324.558 294.521 324.609C294.573 324.661 293.506 325.535 292.15 326.551C290.794 327.568 287.641 330.006 285.145 331.97C276.363 338.876 271.338 342.485 266.559 345.314C265.214 346.11 263.942 347.025 263.731 347.347C263.52 347.668 262.717 348.24 261.946 348.617C260.386 349.38 259.778 349.388 251.475 348.747C242.779 348.077 242.088 347.897 239.943 345.753C238.564 344.374 237.581 343.943 236.97 344.449C236.425 344.902 236.502 345.375 237.373 346.919C238.33 348.615 238.266 348.698 235.334 349.581C232.911 350.312 221.188 354.249 217.185 355.677C214.962 356.47 214.125 356.638 211.864 356.745C207.229 356.965 204.46 356.046 199.143 352.521C195.461 350.081 194.545 349.697 191.885 349.474C188.925 349.226 183.434 347.409 183.245 346.614C183.176 346.324 183.149 317.997 183.187 283.666L183.254 221.245L194.351 221.111L194.962 222.265C196.424 225.028 199.932 226.926 202.928 226.574C205.71 226.247 208.259 224.495 209.568 222.012C210.156 220.895 210.238 220.451 210.238 218.345C210.238 216.231 210.158 215.797 209.559 214.661C207.757 211.238 203.653 209.372 200.16 210.387C197.712 211.099 195.768 212.667 194.789 214.722L194.379 215.58L183.254 215.444V187.954L235.827 187.826L236.355 188.86C237.077 190.275 238.738 191.877 240.252 192.62C241.289 193.128 241.894 193.238 243.657 193.239C246.374 193.241 247.912 192.605 249.653 190.765C251.275 189.05 251.855 187.512 251.852 184.928C251.85 183.107 251.765 182.753 250.977 181.296C249.953 179.402 248.31 177.986 246.406 177.353C244.547 176.736 241.686 176.936 239.99 177.802C238.556 178.534 236.874 180.233 236.368 181.46L236.03 182.28H183.439L183.287 181.712C183.204 181.4 183.134 175.215 183.132 167.967L183.128 154.789H286.521L287.011 155.751C287.668 157.038 289.152 158.463 290.692 159.284C291.804 159.877 292.237 159.957 294.349 159.957C296.459 159.957 296.896 159.877 298.006 159.287C302.903 156.683 304.022 150.394 300.32 146.296C298.213 143.965 294.459 143.078 291.469 144.206C289.773 144.846 288.056 146.305 287.12 147.901L286.485 148.986L261.35 149.05C247.527 149.086 223.374 149.085 207.677 149.049L179.137 148.984L178.488 147.877C177.588 146.34 175.775 144.818 174.085 144.18C172.321 143.514 169.726 143.599 167.964 144.38C164.41 145.956 162.36 150.073 163.301 153.746C164.244 157.428 167.02 159.792 170.681 160.031C173.215 160.196 174.962 159.609 176.723 158L178.083 156.756V182.28H128.524L127.913 181.127C125.459 176.502 118.715 175.547 114.968 179.293C113.156 181.105 112.64 182.412 112.638 185.18C112.636 187.286 112.698 187.564 113.497 189.037C115.021 191.848 117.415 193.241 120.732 193.247C122.574 193.25 122.946 193.163 124.504 192.368C126.209 191.497 127.158 190.534 128.198 188.619L128.628 187.828H178.083V215.57H87.1094L86.1965 214.092C84.5784 211.47 82.2805 210.179 79.2073 210.164C77.5554 210.156 77.0815 210.264 75.624 210.982C69.3723 214.059 69.3767 222.633 75.6309 225.711C77.0959 226.432 77.5676 226.54 79.2144 226.531C80.7097 226.522 81.4114 226.381 82.5349 225.863C84.1721 225.107 85.7761 223.611 86.5276 222.138L87.0476 221.119H178.03L178.12 252.581C178.169 269.886 178.169 300.926 178.12 321.559C178.053 349.521 177.957 359.069 177.742 359.054C177.663 359.048 177.519 359.006 177.333 358.939L176.608 358.629L176.068 358.4C175.297 358.038 174.514 357.624 174.295 357.427C174.084 357.238 172.098 356.498 169.882 355.784C167.666 355.069 165.601 354.253 165.294 353.97C164.836 353.548 164.53 353.483 163.599 353.611C162.625 353.744 161.763 353.528 157.6 352.107C154.926 351.194 151.797 350.154 150.648 349.795C148.699 349.187 148.291 348.925 144.595 345.91C142.415 344.132 139.171 341.628 137.385 340.346C135.599 339.064 133.423 337.42 132.549 336.692C129.395 334.065 126.741 329.762 123.876 322.628C122.093 318.189 120.613 315.77 118.391 313.658C117.454 312.767 116.059 311.373 115.292 310.56L112.718 307.83C111.76 306.815 111.403 306.595 110.826 306.661C109.135 306.855 110.221 309.28 113.376 312.356C114.526 313.477 116.049 315.169 116.761 316.117C118.381 318.274 121.085 323.546 122.983 328.25L124.437 331.852L127.726 335.438C135.583 344.005 139.583 347.506 143.67 349.394C147.153 351.004 155.858 354.075 164.694 356.813C166.897 357.495 167.958 357.934 167.738 358.07C166.97 358.544 164.052 358.887 161.971 358.746C159.192 358.559 158.681 358.372 148.576 353.841C133.299 346.992 130.271 345.543 127.436 343.719C125.175 342.265 124.213 341.674 123.55 341.587C123.529 341.58 123.513 341.576 123.503 341.576C123.493 341.576 123.481 341.577 123.469 341.579Z"
        fill="#284B63"
      />
      <path
        d="M37.9885 264.57C37.9675 264.569 37.9441 264.565 37.9177 264.556L36.1492 262.745C33.6807 260.217 33.0835 258.935 32.7361 255.419C32.2832 250.834 33.0129 244.862 35.1038 236.046C36.2791 231.09 36.0559 230.198 33.6404 230.198C33.0469 230.198 32.5615 230.088 32.5615 229.953C32.5615 229.818 31.9905 226.782 31.2927 223.206C29.502 214.031 28.9871 209.832 28.979 204.347C28.9717 199.278 29.4062 195.717 30.4661 192.163C30.8254 190.958 31.1731 189.66 31.2385 189.278C31.4204 188.22 30.6777 188.393 29.8835 189.593C29.1157 190.754 28.9438 190.864 29.2795 189.98C29.8831 188.393 35.7998 178.624 36.0227 178.847C36.0647 178.889 35.928 179.333 35.719 179.833C35.3757 180.655 35.3779 180.765 35.7419 180.969C36.075 181.155 36.3369 183.188 37.2471 192.645C37.8533 198.942 38.4373 204.491 38.5447 204.975C38.6763 205.566 38.9065 205.886 39.2449 205.95C39.5225 206.002 39.8328 206.174 39.9346 206.331C40.2715 206.851 40.1348 208.07 39.7041 208.384C39.3103 208.673 39.3459 209.298 40.2158 217.366C40.7302 222.135 41.1477 226.409 41.1438 226.865C41.1396 227.32 40.791 228.852 40.3687 230.269C38.6589 236.007 37.9602 240.494 37.5906 248.105C37.3364 253.342 37.3667 254.154 37.9751 258.445C38.1826 259.909 38.2505 261.577 38.1494 262.733L37.9885 264.57Z"
        fill="#284B63"
      />
      <path
        d="M164.152 361.928C163.911 361.865 163.457 361.862 163.143 361.923C162.829 361.983 163.027 362.035 163.582 362.038C164.136 362.041 164.393 361.991 164.152 361.928Z"
        fill="#284B63"
      />
      <path
        d="M161.879 361.675C161.636 361.612 161.239 361.612 160.996 361.675C160.754 361.738 160.952 361.79 161.438 361.79C161.923 361.79 162.122 361.738 161.879 361.675Z"
        fill="#284B63"
      />
      <path
        d="M167.617 361.584C168.114 361.449 167.855 361.427 166.86 361.519C166.028 361.596 165.3 361.702 165.242 361.754C165.054 361.923 166.839 361.795 167.617 361.584Z"
        fill="#284B63"
      />
      <path
        d="M158.072 360.583C155.435 359.517 154.779 359.336 156.015 360.015C157.295 360.719 159.519 361.585 160.051 361.586C160.328 361.586 159.438 361.136 158.072 360.583Z"
        fill="#284B63"
      />
      <path
        d="M169.319 361.177C169.146 361.107 168.862 361.107 168.689 361.177C168.515 361.247 168.657 361.305 169.004 361.305C169.351 361.305 169.492 361.247 169.319 361.177Z"
        fill="#284B63"
      />
      <path
        d="M210.239 358.443C209.67 358.246 205.828 358.164 206.129 358.355C206.309 358.469 207.364 358.555 208.474 358.546C209.583 358.537 210.378 358.491 210.239 358.443Z"
        fill="#284B63"
      />
      <path
        d="M196.07 353.758C195.757 353.445 192.439 352.201 192.297 352.343C192.219 352.421 195.853 353.966 196.229 354.016C196.292 354.023 196.22 353.908 196.07 353.758Z"
        fill="#284B63"
      />
      <path
        d="M237.604 351.256C238.73 350.639 238.053 350.639 236.721 351.256C236.057 351.563 235.885 351.726 236.216 351.731C236.494 351.736 237.118 351.522 237.604 351.256Z"
        fill="#284B63"
      />
      <path
        d="M277.199 351.004C277.658 350.857 277.371 350.795 276.142 350.777C274.45 350.752 273.908 350.516 274.491 350.06C274.663 349.926 275.938 349.56 277.325 349.249C284.044 347.738 290.402 344.408 297.661 338.598C300.087 336.657 304.876 332.531 309.18 328.676L310.034 327.912L309.487 326.984C308.813 325.842 308.897 325.105 309.777 324.451C310.524 323.894 328.156 317.691 328.459 317.877C328.928 318.168 328.565 318.755 327.616 319.239C327.047 319.529 326.646 319.83 326.725 319.908C326.803 319.986 327.864 319.553 329.082 318.945C331.08 317.947 331.305 317.764 331.373 317.068C331.425 316.528 331.983 315.702 333.238 314.307C334.222 313.212 335.29 311.743 335.611 311.043C336.21 309.732 337.085 306.394 336.883 306.191C336.573 305.881 333.713 307.499 330.182 309.982C321.39 316.163 318.978 317.357 309.129 320.394C303.303 322.191 300.015 323.824 298.254 325.796C297.356 326.801 295.194 328.267 291.905 330.101C290.128 331.092 288.143 332.289 287.494 332.761C286.278 333.645 283.757 336.254 283.757 336.627C283.757 336.743 283.161 337.204 282.433 337.651C281.704 338.099 279.917 339.402 278.46 340.547C275.599 342.797 273.631 343.901 271.304 344.562C270.021 344.927 269.553 345.253 267.808 346.998C266.7 348.106 265.843 349.063 265.903 349.123C265.963 349.184 267.338 349.329 268.958 349.446C270.578 349.563 271.979 349.735 272.071 349.827C272.164 349.92 272.268 350.251 272.302 350.563C272.337 350.875 272.375 351.158 272.386 351.193C272.438 351.349 276.636 351.184 277.199 351.004Z"
        fill="#284B63"
      />
      <path
        d="M302.798 337.035C304.185 335.864 306.625 333.573 308.22 331.943C311.373 328.721 311.086 328.929 305.052 334.235C302.841 336.178 300.011 338.607 298.763 339.633C295.558 342.268 295.417 342.467 298.006 340.707C299.255 339.858 301.411 338.205 302.798 337.035Z"
        fill="#284B63"
      />
      <path
        d="M89.4336 337.158C88.0464 336.49 85.8333 335.232 84.5156 334.362C81.9795 332.687 82.0759 333.166 84.6416 334.989C86.3513 336.203 88.3323 337.245 90.1902 337.907C92.3096 338.663 92.0745 338.43 89.4336 337.158Z"
        fill="#284B63"
      />
      <path
        d="M95.6035 336.783C95.4004 336.59 92.8225 334.432 89.875 331.987C86.9272 329.542 84.5156 327.372 84.5156 327.167C84.5156 326.685 85.3447 326.687 86.2798 327.171C86.6814 327.378 88.1228 328.429 89.4829 329.506C95.6328 334.377 95.7273 334.424 92.0564 330.805C89.3218 328.109 88.4797 327.11 87.9016 325.878L87.1768 324.333L86.3701 324.718C85.5811 325.094 85.5032 325.073 82.8325 323.78L80.1021 322.458L75.2495 317.501C72.5806 314.774 70.4009 312.657 70.4055 312.796C70.4153 313.083 72.374 315.406 75.2686 318.564C77.1335 320.598 77.437 321.244 76.5273 321.244C76.041 321.244 76.2681 321.618 78.8059 324.994C83.1118 330.723 87.8125 334.418 93.3428 336.42C95.5579 337.222 96.1707 337.321 95.6035 336.783Z"
        fill="#284B63"
      />
      <path
        d="M314.526 314.871C326.07 309.509 329.252 307.725 332.951 304.542C336.676 301.336 340.556 296.103 344.248 289.306C347.493 283.331 357.148 262.721 357.148 261.768C357.148 261.49 355.549 263.157 354.127 264.917C353.325 265.911 352.182 267.613 351.588 268.7C349.212 273.048 346.197 277.172 341.335 282.723C338.659 285.779 336.577 287.701 335.943 287.701C334.923 287.701 335.3 287.079 338.726 283.114L340.102 281.522L338.084 283.455C333.128 288.2 328.84 292.936 322.25 300.942C316.511 307.914 310.784 314.404 308.694 316.304L307.086 317.766L307.968 317.636C308.454 317.565 311.405 316.32 314.526 314.871Z"
        fill="#284B63"
      />
      <path
        d="M62.4761 305.306C61.3293 303.383 60.3486 302.118 59.761 301.804C59.208 301.508 59.1985 301.517 59.5535 302.006C60.2981 303.032 62.9541 306.361 63.0295 306.363C63.072 306.363 62.823 305.888 62.4761 305.306Z"
        fill="#284B63"
      />
      <path
        d="M65.3635 300.405C64.6667 298.619 63.6289 296.364 63.0576 295.393C59.4404 289.245 56.7891 282.656 54.8877 275.091C53.7458 270.546 49.7085 257.618 48.9497 256.077C48.5022 255.168 47.5583 252.043 46.6558 248.481C45.3289 243.246 45.0952 241.971 44.9233 239.025C44.7354 235.805 43.8484 231.207 43.4153 231.207C43.0171 231.207 42.4302 233.953 41.5022 240.16C40.6255 246.026 40.4241 252.782 40.9834 257.562C41.9343 265.688 43.8162 270.57 49.6003 279.917C51.0906 282.326 53.3713 286.036 54.6685 288.163C55.9658 290.29 57.7927 293.024 58.7285 294.238C62.4238 299.032 66.4868 304.014 66.5569 303.837C66.5974 303.735 66.0605 302.19 65.3635 300.405Z"
        fill="#284B63"
      />
      <path
        d="M59.043 298.897C59.043 298.351 54.2866 292.046 52.696 290.483C51.6326 289.438 50.5203 288.186 50.2236 287.701L49.6848 286.818L49.8569 288.079C50.1377 290.135 50.6387 290.817 53.2949 292.759C53.9915 293.269 54.7207 294.097 55.0583 294.763C55.8625 296.348 59.043 299.648 59.043 298.897Z"
        fill="#284B63"
      />
      <path
        d="M351.913 284.041C353.232 282.627 353.388 282.322 354.245 279.501C355.053 276.838 355.958 273.502 356.502 271.181C356.618 270.685 356.594 270.512 356.432 270.677C356.089 271.026 352.732 279.498 352.22 281.306C351.99 282.118 351.406 283.521 350.921 284.422C350.437 285.324 350.143 285.948 350.27 285.809C350.396 285.671 351.135 284.875 351.913 284.041Z"
        fill="#284B63"
      />
      <path
        d="M44.1553 276.18C40.6299 269.346 40.3645 268.952 38.6758 268.037C37.9011 267.618 37.2356 267.306 37.1968 267.345C37.158 267.384 38.6812 269.686 40.5815 272.462C42.4819 275.237 44.603 278.374 45.2952 279.433C45.9871 280.493 46.594 281.319 46.6438 281.269C46.6934 281.219 45.5737 278.929 44.1553 276.18Z"
        fill="#284B63"
      />
      <path
        d="M358.139 279.777C358.164 278.735 358.001 279.05 357.825 280.387C357.725 281.145 357.749 281.354 357.898 281.017C358.021 280.74 358.129 280.182 358.139 279.777Z"
        fill="#284B63"
      />
      <path
        d="M343.088 278.001C343.946 276.886 344.456 276.126 344.223 276.312C343.99 276.499 342.984 277.69 341.988 278.96C340.991 280.23 340.481 280.991 340.853 280.65C341.225 280.309 342.231 279.117 343.088 278.001Z"
        fill="#284B63"
      />
      <path
        d="M56.9165 275.595C56.105 273.099 55.8035 272.42 55.7869 273.05C55.7659 273.851 57.8181 279.667 57.9595 279.208C57.9946 279.093 57.5254 277.468 56.9165 275.595Z"
        fill="#284B63"
      />
      <path
        d="M360.587 263.566C360.466 263.444 359.726 265.466 359.553 266.39C359.476 266.806 359.697 266.36 360.044 265.4C360.391 264.44 360.636 263.614 360.587 263.566Z"
        fill="#284B63"
      />
      <path
        d="M364.712 248.861C366.468 242.388 366.938 239.793 367.091 235.737C367.172 233.581 367.409 230.357 367.618 228.572C367.827 226.787 367.961 225.29 367.916 225.245C367.871 225.2 367.685 225.757 367.502 226.483C367.32 227.209 366.6 229.096 365.902 230.676C364.676 233.45 364.649 233.562 365.115 233.902C365.54 234.213 365.615 234.707 365.75 238.09C365.871 241.141 365.827 242.106 365.535 242.809C364.28 245.827 362.919 251.28 362.967 253.099C362.982 253.699 363.044 253.645 363.489 252.644C363.767 252.02 364.317 250.318 364.712 248.861Z"
        fill="#284B63"
      />
      <path
        d="M32.2656 242.052C32.22 240.177 31.2708 246.451 31.1782 249.24L31.0693 252.518L31.675 247.6C32.0083 244.896 32.2739 242.399 32.2656 242.052Z"
        fill="#284B63"
      />
      <path
        d="M370.373 237.018C372.357 231.318 372.729 225.488 371.428 220.488L371.1 219.227L370.825 220.488C370.336 222.729 369.793 226.166 369.013 231.964C368.593 235.085 368.138 238.206 368.003 238.899C367.869 239.593 367.704 240.955 367.638 241.926L367.518 243.691L368.507 241.613C369.052 240.469 369.892 238.402 370.373 237.018Z"
        fill="#284B63"
      />
      <path
        d="M32.4817 240.239C32.4011 240.038 32.3413 240.098 32.3293 240.392C32.3184 240.657 32.3779 240.806 32.4617 240.723C32.5454 240.639 32.5544 240.421 32.4817 240.239Z"
        fill="#284B63"
      />
      <path
        d="M374.85 228.307C374.844 226.365 374.74 224.379 374.62 223.893C374.479 223.326 374.438 224.406 374.503 226.92C374.58 229.818 374.5 231.388 374.2 232.992C373.67 235.814 373.726 236.081 374.355 233.729C374.751 232.248 374.858 231.071 374.85 228.307Z"
        fill="#284B63"
      />
      <path
        d="M28.6594 217.577C28.1887 214.046 27.7483 210.76 27.6807 210.274C27.4597 208.685 27.78 214.632 28.0339 216.831C28.2898 219.048 29.2893 224.223 29.4336 224.079C29.4783 224.034 29.1301 221.108 28.6594 217.577Z"
        fill="#284B63"
      />
      <path
        d="M80.8826 221.9C83.8887 220.535 83.8311 216.103 80.7898 214.757C79.1843 214.047 77.7478 214.302 76.4612 215.526C74.8606 217.049 74.7646 219.328 76.231 220.998C77.4351 222.369 79.127 222.697 80.8826 221.9Z"
        fill="#284B63"
      />
      <path
        d="M203.971 221.858C205.374 221.179 206.078 220.036 206.078 218.437C206.078 216.772 205.407 215.599 204.034 214.863C199.96 212.682 196.17 218.129 199.56 221.293C200.818 222.467 202.315 222.659 203.971 221.858Z"
        fill="#284B63"
      />
      <path
        d="M375.17 212.574C375.961 210.463 376.057 210.004 375.791 209.58C375.536 209.171 375.65 207.23 376.405 199.147C378 182.035 378.008 181.857 377.357 177.414L376.428 171.075C375.68 165.963 373.76 161.754 370.18 157.38C368.103 154.842 362.306 147.14 361.095 145.308C360.705 144.719 360.478 144.104 360.566 143.875C360.666 143.615 359.859 142.252 358.264 139.989L358.22 139.928L358.218 139.923C355.711 136.367 355.244 135.705 354.93 135.771C354.906 135.776 354.883 135.785 354.861 135.798C354.814 135.823 354.768 135.861 354.715 135.905L354.709 135.91C354.344 136.213 354.152 136.096 352.423 134.512C351.974 134.101 351.544 133.828 351.467 133.905C351.389 133.983 351.261 134.442 351.183 134.927C350.973 136.22 351.516 137.129 354.535 140.54C359.697 146.371 363.775 151.139 364.241 151.889C365.129 153.315 364.575 154.814 363.017 155.205L362.97 155.216C362.867 155.241 362.781 155.263 362.71 155.309C362.32 155.564 362.427 156.58 363.128 163.21L363.129 163.218L363.13 163.223L363.188 163.772C363.597 167.64 364.164 173.71 364.447 177.261C365.327 188.286 366.626 194.147 369.746 201.166C371.249 204.545 371.419 205.127 371.038 205.587C370.441 206.305 369.874 205.58 368.502 202.341C367.763 200.597 367.121 199.209 367.074 199.255C366.98 199.35 369.517 206.119 370.72 208.983C371.552 210.961 373.816 215.064 374.077 215.065C374.164 215.066 374.655 213.944 375.17 212.574Z"
        fill="#284B63"
      />
      <path
        d="M123.032 188.383C124.625 187.248 125.123 184.62 124.048 183.024C122.397 180.575 119.017 180.588 117.344 183.05C116.856 183.767 116.77 184.165 116.851 185.322C116.965 186.95 117.624 188.048 118.87 188.684C119.986 189.253 122.016 189.106 123.032 188.383Z"
        fill="#284B63"
      />
      <path
        d="M245.729 188.524C248.822 186.785 248.075 182.068 244.583 181.281C241.787 180.65 239.253 183.185 239.883 185.981C240.482 188.638 243.325 189.875 245.729 188.524Z"
        fill="#284B63"
      />
      <path
        d="M363.129 183.856C363.072 183.474 363.024 183.786 363.024 184.549C363.024 185.312 363.072 185.624 363.129 185.243C363.187 184.862 363.187 184.237 363.129 183.856Z"
        fill="#284B63"
      />
      <path
        d="M361.068 157.329C360.852 155.863 360.562 154.323 360.425 153.907C360.073 152.845 360.281 155.729 360.861 159.96C361.291 163.101 361.313 163.17 361.386 161.617C361.428 160.725 361.285 158.796 361.068 157.329Z"
        fill="#284B63"
      />
      <path
        d="M47.9226 159.724C48.3516 158.694 48.7004 157.701 48.698 157.518C48.6951 157.335 48.313 158.108 47.8481 159.237C47.3835 160.365 46.9141 161.432 46.8052 161.608C46.6821 161.808 46.7085 161.866 46.8748 161.763C47.0222 161.672 47.4937 160.755 47.9226 159.724Z"
        fill="#284B63"
      />
      <path
        d="M374.918 156.5C374.356 153.741 373.626 151.77 371.363 146.896C369.312 142.479 367.35 137.926 363.584 128.839C361.882 124.733 361.177 122.74 361.264 122.284C361.362 121.771 360.936 120.947 359.293 118.474C358.14 116.739 356.209 114.092 355.001 112.593C353.085 110.213 346.425 102.72 342.181 98.1695C340.799 96.6868 340.773 96.6729 340.92 97.476C341.151 98.7372 340.66 98.5161 338.386 96.3345C336.326 94.3589 334.076 92.6462 331.865 91.372C331.206 90.9922 330.667 90.7517 330.667 90.8374C330.667 90.9231 332.107 92.8916 333.868 95.2119C340.459 103.896 344.35 110.458 349.399 121.404C353.099 129.426 355.85 133.606 368.958 151.132C374.134 158.053 375.12 159.26 375.258 158.845C375.305 158.704 375.152 157.649 374.918 156.5Z"
        fill="#284B63"
      />
      <path
        d="M173.588 155.174C175.277 154.026 175.778 151.343 174.599 149.751C173.781 148.647 172.558 147.98 171.35 147.98C167.729 147.98 165.958 152.245 168.558 154.704C169.57 155.662 169.812 155.753 171.404 155.778C172.357 155.793 172.896 155.644 173.588 155.174Z"
        fill="#284B63"
      />
      <path
        d="M297 154.786C299.65 152.218 297.952 147.98 294.273 147.98C291.363 147.98 289.424 151.245 290.839 153.763C291.731 155.351 292.643 155.837 294.537 155.734C295.931 155.658 296.213 155.55 297 154.786Z"
        fill="#284B63"
      />
      <path
        d="M357.225 146.177C356.68 145.227 352.844 141.103 352.669 141.278C352.335 141.612 356.755 146.813 357.478 146.936C357.589 146.955 357.475 146.614 357.225 146.177Z"
        fill="#284B63"
      />
      <path
        d="M52.0906 140.447C52.46 139.008 52.7168 137.787 52.6616 137.731C52.5349 137.605 51.5549 140.965 51.3284 142.305C51.0349 144.04 51.3916 143.171 52.0906 140.447Z"
        fill="#284B63"
      />
      <path
        d="M44.0159 130.83C47.3738 123.506 51.0403 117.192 56.2473 109.765C60.907 103.119 63.1772 99.2753 65.9795 93.2857C69.0225 86.7823 77.0103 68.0873 76.8945 67.7402C76.7705 67.3685 67.2983 77.5294 61.3662 84.3973C56.96 89.4987 56.5435 90.0599 56.9458 90.354C57.3535 90.6523 57.2102 90.9485 55.189 93.9828C53.1196 97.0892 52.5088 97.684 52.0874 97.0023C51.8499 96.6181 50.5085 98.7837 49.373 101.384C48.5366 103.3 46.967 107.386 44.7471 113.428C44.0574 115.305 41.2507 124.349 40.4817 127.173C40.4062 127.45 40.7063 127.138 41.1487 126.479C42.5493 124.393 43.0603 125.027 42.1333 127.701C41.5884 129.274 40.7612 134.21 40.5103 137.387L40.3606 139.279L41.4656 136.631C42.0732 135.174 43.2209 132.564 44.0159 130.83Z"
        fill="#284B63"
      />
      <path
        d="M349.41 129.16C349.414 128.45 349.264 127.485 349.076 127.016C348.606 125.846 346.275 121.695 346.155 121.815C346.101 121.868 346.286 122.562 346.565 123.356C347.116 124.924 347.751 128.445 348.48 133.982L348.946 137.513L349.174 133.982C349.3 132.041 349.406 129.87 349.41 129.16Z"
        fill="#284B63"
      />
      <path
        d="M68.615 99.5329C69.1321 99.2424 69.7454 98.6822 69.9783 98.2879C70.2112 97.8937 71.5452 94.1876 72.9426 90.052C76.5803 79.2872 76.8818 78.6237 78.1365 78.6237C78.469 78.6237 79.1655 78.868 79.6843 79.1666L80.6274 79.7094L83.0129 77.9491C84.325 76.9809 86.6675 75.329 88.2188 74.2781C89.77 73.2273 91.8127 71.7496 92.7583 70.9944C93.7041 70.2392 96.2322 68.4448 98.3765 67.0069C107.282 61.0357 112.99 55.7622 117.032 49.7731C118.344 47.8288 119.073 47.2017 119.729 47.4533C120.21 47.638 119.978 48.0861 117.951 50.8813C114.672 55.4037 115.522 54.5822 120.694 48.2304C123.68 44.562 124.885 42.9011 124.798 42.5696C124.731 42.3116 124.939 41.6361 125.261 41.0685C125.962 39.8349 125.915 39.8229 123.139 40.5317C120.772 41.1361 119.917 41.4833 107.747 46.7878L98.0652 51.0074L92.7405 55.2628C85.7468 60.8521 83.834 62.6037 82.313 64.8111C80.6438 67.2336 80.0105 68.5316 78.605 72.4113C77.9585 74.1962 76.1978 78.4521 74.6926 81.869C73.1873 85.2858 71.5833 88.9326 71.1279 89.9729C70.6726 91.0132 69.8252 92.6021 69.2444 93.5038C68.6638 94.4054 68.0508 95.4088 67.8821 95.7336C67.531 96.4097 67.1953 100.061 67.4841 100.061C67.5894 100.061 68.0981 99.8234 68.615 99.5329Z"
        fill="#284B63"
      />
      <path
        d="M327.136 86.577C327.136 86.5126 326.88 86.336 326.568 86.1848C326.023 85.9207 326.02 85.9254 326.49 86.302C327.005 86.7143 327.136 86.77 327.136 86.577Z"
        fill="#284B63"
      />
      <path
        d="M80.4937 82.2699C81.4573 81.5011 82.2456 80.824 82.2456 80.7652C82.2456 80.5395 80.5554 81.6831 79.4714 82.6421C77.7908 84.1293 78.4761 83.8797 80.4937 82.2699Z"
        fill="#284B63"
      />
      <path
        d="M91.9556 73.4517C94.5935 71.5427 94.8005 71.3095 92.9644 72.3149C92.1321 72.7706 90.9404 73.6598 90.3162 74.2909C89.6921 74.922 89.3516 75.3198 89.5596 75.175C89.7678 75.0302 90.8459 74.2547 91.9556 73.4517Z"
        fill="#284B63"
      />
      <path
        d="M247.187 46.2711C247.395 46.2593 247.821 46.3348 248.133 46.4388C248.445 46.5427 248.7 46.5243 248.7 46.3978C248.7 46.01 239.918 39.0878 236.973 37.1542C233.607 34.9445 232.149 34.1324 229.029 32.7306C221.385 29.2965 214.693 28.2089 204.147 28.6864C192.54 29.212 174.019 30.8689 175.057 31.2888C176.406 31.8347 181.21 32.4704 183.986 32.4704C191.439 32.4704 200.21 33.7476 204.958 35.5242C206.363 36.0497 206.671 36.5345 205.889 36.9898C205.488 37.2235 205.486 37.2476 205.871 37.2546C206.103 37.2585 207.919 37.7789 209.906 38.4103L210.107 38.4742C211.946 39.0589 212.808 39.3331 213.687 39.4016C214.495 39.4644 215.316 39.3533 216.923 39.1494C217.998 39.0129 218.853 39.1653 230.542 41.574C230.931 41.6543 231.439 41.7553 231.941 41.8527C232.202 41.9033 232.461 41.953 232.7 41.9982C232.902 42.0363 233.09 42.0713 233.253 42.101C234.292 42.2902 234.577 42.4436 234.577 42.8134C234.577 43.1834 235.024 43.4231 236.658 43.9292C237.802 44.2838 240.157 45.0273 241.891 45.5816C244.184 46.3146 245.284 46.549 245.926 46.4409C246.128 46.4069 246.345 46.3738 246.543 46.3459C246.822 46.3068 247.066 46.2779 247.187 46.2711Z"
        fill="#284B63"
      />
      <path
        d="M138.687 40.1137C142.934 38.6664 144.869 38.3506 146.561 38.8283C147.125 38.9877 147.263 38.8785 147.822 37.8311C148.539 36.4874 149.787 35.6503 153.588 33.9661C155.48 33.1273 156.385 32.8801 158.127 32.726C159.754 32.5822 160.946 32.2795 162.85 31.527C164.251 30.9734 165.613 30.3902 165.876 30.231C166.307 29.9707 166.292 29.9547 165.725 30.0724L160.865 31.0847C155.908 32.1176 155.385 32.1556 155.385 31.4826C155.385 31.2167 155.527 30.9322 155.7 30.8503C156.355 30.5407 151.681 30.9955 149.112 31.4913C143.926 32.4918 139.523 34.1925 135.894 36.5961C133.601 38.1151 131.474 39.9052 131.693 40.1315C131.771 40.212 134.608 39.2598 137.998 38.0157C141.388 36.7715 144.354 35.7526 144.588 35.7513C145.335 35.7474 145.347 36.2307 144.617 36.9088C143.639 37.8175 142.732 38.2432 138.235 39.9039C136.085 40.6979 134.279 41.393 134.221 41.4486C133.97 41.69 134.713 41.4678 138.687 40.1137Z"
        fill="#284B63"
      />
      <path
        d="M269.381 41.3124C268.837 40.9936 263.075 39.0251 262.733 39.0411C262.422 39.0556 269.091 41.4962 269.507 41.52C269.646 41.528 269.589 41.4344 269.381 41.3124Z"
        fill="#284B63"
      />
      <path
        d="M200.14 36.1428C200.14 36.1482 200.143 36.1534 200.147 36.1584C200.15 36.1616 200.154 36.1647 200.159 36.1677C200.165 36.1713 200.172 36.1747 200.181 36.1779C200.214 36.1902 200.265 36.1998 200.334 36.206C200.388 36.2109 200.454 36.2136 200.529 36.2136C200.627 36.2136 200.709 36.2091 200.771 36.201C200.83 36.1934 200.873 36.1826 200.896 36.1696C200.937 36.1472 200.923 36.1181 200.845 36.0864C200.758 36.0515 200.645 36.0339 200.531 36.0339C200.451 36.0338 200.372 36.0421 200.302 36.0587C200.271 36.0662 200.241 36.0754 200.214 36.0864C200.193 36.0948 200.177 36.103 200.165 36.111C200.148 36.1222 200.14 36.1329 200.14 36.1428Z"
        fill="#284B63"
      />
      <path
        d="M195.837 35.2536C191.241 34.4745 188.015 34.1244 188.802 34.4899C189.355 34.7471 197.928 35.9552 199.142 35.9471C199.558 35.9441 198.071 35.6322 195.837 35.2536Z"
        fill="#284B63"
      />
      <path
        d="M138.361 32.1379C139.332 31.6054 139.924 31.2335 139.676 31.3113C139.428 31.3892 138.628 31.6266 137.898 31.8388C136.896 32.1299 136.264 32.5425 135.322 33.5186L134.074 34.8126L135.335 33.9594C136.028 33.4901 137.39 32.6704 138.361 32.1379Z"
        fill="#284B63"
      />
      <path
        d="M246.686 32.3475C246.078 31.7001 243.288 29.7285 241.512 28.6915C240.369 28.0233 240.513 28.2081 242.143 29.5013C243.446 30.5346 246.963 32.9748 247.15 32.9748C247.219 32.9748 247.01 32.6925 246.686 32.3475Z"
        fill="#284B63"
      />
      <path
        d="M191.934 26.4131C193.378 25.9964 195.166 25.5842 195.906 25.4973C198.805 25.1566 196.598 24.6812 192.989 24.8688C192.24 24.9077 191.048 25.1474 190.34 25.4012C189.633 25.6552 188.373 25.9271 187.541 26.0057C186.708 26.0842 185.404 26.371 184.641 26.6429L183.253 27.1373L186.28 27.1541C188.923 27.1688 189.639 27.0751 191.934 26.4131Z"
        fill="#284B63"
      />
      <path
        d="M219.405 25.6724C220.298 25.4162 222.572 24.1646 222.42 24.0128C222.371 23.963 219.099 24.1413 215.15 24.409C211.2 24.6768 207.232 24.9101 206.33 24.9276L204.691 24.9595L205.826 25.1985C208.497 25.7612 217.945 26.0909 219.405 25.6724Z"
        fill="#284B63"
      />
      <path
        d="M229.727 23.463C229.348 23.4055 228.667 23.4044 228.213 23.4601C227.76 23.5162 228.07 23.5633 228.902 23.5647C229.735 23.5657 230.105 23.5202 229.727 23.463Z"
        fill="#284B63"
      />
      <path
        d="M235.397 23.2043C234.53 23.155 233.111 23.155 232.244 23.2043C231.377 23.2535 232.086 23.2938 233.82 23.2938C235.554 23.2938 236.264 23.2535 235.397 23.2043Z"
        fill="#284B63"
      />
      <path
        d="M192.333 20.8586C193.439 20.4876 193.593 20.3898 192.904 20.4948C191.987 20.6344 190.062 21.3475 190.567 21.3598C190.706 21.3628 191.5 21.1376 192.333 20.8586Z"
        fill="#284B63"
      />
</svg>
